# xmcd CD database file
#
# Track frame offsets:
#	150
#	33516
#	79159
#	121388
#	162564
#
# Disc length: 2190 seconds
#
# Revision: 0
# Processed by: cddbd v1.5.1PL0 Copyright (c) Steve Scherf et al.
# Submitted via: CDex 1.50
#
DISCID=3b088c05
DTITLE=非常階段 - king of noise
DYEAR=1900
DGENRE=Noise
TTITLE0=the wreck of a once promising youth
TTITLE1=Tod dem Marxismus
TTITLE2=Konzentrationslager
TTITLE3=Self-Mutilation
TTITLE4=in touch of Abe Kaii (part 1)
EXTD=
EXTT0=
EXTT1=
EXTT2=
EXTT3=
EXTT4=
PLAYORDER=
